<svg width="33" height="33" viewBox="0 0 33 33" fill="none" xmlns="http://www.w3.org/2000/svg">
<g id="Social Icon/Facebook" clip-path="url(#clip0_433_4007)">
<path id="Vector" d="M32.5 16.8361C32.5 7.9455 25.3366 0.738281 16.5 0.738281C7.66344 0.738281 0.5 7.9455 0.5 16.8361C0.5 24.8708 6.35094 31.5306 14 32.7383V21.4893H9.9375V16.8361H14V13.2895C14 9.25501 16.3888 7.02648 20.0434 7.02648C21.7934 7.02648 23.625 7.34089 23.625 7.34089V11.3025H21.6075C19.62 11.3025 19 12.5434 19 13.8177V16.8361H23.4375L22.7281 21.4893H19V32.7383C26.6491 31.5306 32.5 24.8708 32.5 16.8361Z" fill="#FAFAFA"/>
</g>
<defs>
<clipPath id="clip0_433_4007">
<rect width="32" height="32" fill="white" transform="translate(0.5 0.738281)"/>
</clipPath>
</defs>
</svg>
