<svg width="33" height="33" viewBox="0 0 33 33" fill="none" xmlns="http://www.w3.org/2000/svg">
<g clip-path="url(#clip0_433_4001)">
<path d="M16.5 3.61953C20.775 3.61953 21.2813 3.63828 22.9625 3.71328C24.525 3.78203 25.3688 4.04453 25.9313 4.26328C26.675 4.55078 27.2125 4.90078 27.7688 5.45703C28.3313 6.01953 28.675 6.55078 28.9625 7.29453C29.1813 7.85703 29.4438 8.70703 29.5125 10.2633C29.5875 11.9508 29.6063 12.457 29.6063 16.7258C29.6063 21.0008 29.5875 21.507 29.5125 23.1883C29.4438 24.7508 29.1813 25.5945 28.9625 26.157C28.675 26.9008 28.325 27.4383 27.7688 27.9945C27.2063 28.557 26.675 28.9008 25.9313 29.1883C25.3688 29.407 24.5188 29.6695 22.9625 29.7383C21.275 29.8133 20.7688 29.832 16.5 29.832C12.225 29.832 11.7188 29.8133 10.0375 29.7383C8.475 29.6695 7.63125 29.407 7.06875 29.1883C6.325 28.9008 5.7875 28.5508 5.23125 27.9945C4.66875 27.432 4.325 26.9008 4.0375 26.157C3.81875 25.5945 3.55625 24.7445 3.4875 23.1883C3.4125 21.5008 3.39375 20.9945 3.39375 16.7258C3.39375 12.4508 3.4125 11.9445 3.4875 10.2633C3.55625 8.70078 3.81875 7.85703 4.0375 7.29453C4.325 6.55078 4.675 6.01328 5.23125 5.45703C5.79375 4.89453 6.325 4.55078 7.06875 4.26328C7.63125 4.04453 8.48125 3.78203 10.0375 3.71328C11.7188 3.63828 12.225 3.61953 16.5 3.61953ZM16.5 0.738281C12.1563 0.738281 11.6125 0.757031 9.90625 0.832031C8.20625 0.907031 7.0375 1.18203 6.025 1.57578C4.96875 1.98828 4.075 2.53203 3.1875 3.42578C2.29375 4.31328 1.75 5.20703 1.3375 6.25703C0.94375 7.27578 0.66875 8.43828 0.59375 10.1383C0.51875 11.8508 0.5 12.3945 0.5 16.7383C0.5 21.082 0.51875 21.6258 0.59375 23.332C0.66875 25.032 0.94375 26.2008 1.3375 27.2133C1.75 28.2695 2.29375 29.1633 3.1875 30.0508C4.075 30.9383 4.96875 31.4883 6.01875 31.8945C7.0375 32.2883 8.2 32.5633 9.9 32.6383C11.6063 32.7133 12.15 32.732 16.4938 32.732C20.8375 32.732 21.3813 32.7133 23.0875 32.6383C24.7875 32.5633 25.9563 32.2883 26.9688 31.8945C28.0188 31.4883 28.9125 30.9383 29.8 30.0508C30.6875 29.1633 31.2375 28.2695 31.6438 27.2195C32.0375 26.2008 32.3125 25.0383 32.3875 23.3383C32.4625 21.632 32.4813 21.0883 32.4813 16.7445C32.4813 12.4008 32.4625 11.857 32.3875 10.1508C32.3125 8.45078 32.0375 7.28203 31.6438 6.26953C31.25 5.20703 30.7063 4.31328 29.8125 3.42578C28.925 2.53828 28.0313 1.98828 26.9813 1.58203C25.9625 1.18828 24.8 0.913281 23.1 0.838281C21.3875 0.757031 20.8438 0.738281 16.5 0.738281Z" fill="#FAFAFA"/>
<path d="M16.5 8.51953C11.9625 8.51953 8.28125 12.2008 8.28125 16.7383C8.28125 21.2758 11.9625 24.957 16.5 24.957C21.0375 24.957 24.7188 21.2758 24.7188 16.7383C24.7188 12.2008 21.0375 8.51953 16.5 8.51953ZM16.5 22.0695C13.5563 22.0695 11.1687 19.682 11.1687 16.7383C11.1687 13.7945 13.5563 11.407 16.5 11.407C19.4438 11.407 21.8312 13.7945 21.8312 16.7383C21.8312 19.682 19.4438 22.0695 16.5 22.0695Z" fill="#FAFAFA"/>
<path d="M26.9625 8.19414C26.9625 9.25664 26.1 10.1129 25.0438 10.1129C23.9813 10.1129 23.125 9.25039 23.125 8.19414C23.125 7.13164 23.9875 6.27539 25.0438 6.27539C26.1 6.27539 26.9625 7.13789 26.9625 8.19414Z" fill="#FAFAFA"/>
</g>
<defs>
<clipPath id="clip0_433_4001">
<rect width="32" height="32" fill="white" transform="translate(0.5 0.738281)"/>
</clipPath>
</defs>
</svg>
