<svg width="33" height="33" viewBox="0 0 33 33" fill="none" xmlns="http://www.w3.org/2000/svg">
<g id="Social Icon/Linkedin" clip-path="url(#clip0_433_4009)">
<path id="Vector" d="M30.1313 0.738281H2.8625C1.55625 0.738281 0.5 1.76953 0.5 3.04453V30.4258C0.5 31.7008 1.55625 32.7383 2.8625 32.7383H30.1313C31.4375 32.7383 32.5 31.7008 32.5 30.432V3.04453C32.5 1.76953 31.4375 0.738281 30.1313 0.738281ZM9.99375 28.007H5.24375V12.732H9.99375V28.007ZM7.61875 10.6508C6.09375 10.6508 4.8625 9.41953 4.8625 7.90078C4.8625 6.38203 6.09375 5.15078 7.61875 5.15078C9.1375 5.15078 10.3687 6.38203 10.3687 7.90078C10.3687 9.41328 9.1375 10.6508 7.61875 10.6508ZM27.7687 28.007H23.025V20.582C23.025 18.8133 22.9937 16.532 20.5562 16.532C18.0875 16.532 17.7125 18.4633 17.7125 20.457V28.007H12.975V12.732H17.525V14.8195H17.5875C18.2188 13.6195 19.7688 12.3508 22.075 12.3508C26.8813 12.3508 27.7687 15.5133 27.7687 19.6258V28.007Z" fill="#FAFAFA"/>
</g>
<defs>
<clipPath id="clip0_433_4009">
<rect width="32" height="32" fill="white" transform="translate(0.5 0.738281)"/>
</clipPath>
</defs>
</svg>
