<svg width="33" height="33" viewBox="0 0 33 33" fill="none" xmlns="http://www.w3.org/2000/svg">
<g id="Social Icon/Twitter" clip-path="url(#clip0_433_4005)">
<path id="Vector" d="M10.5669 29.7383C22.6394 29.7383 29.2444 19.7339 29.2444 11.0608C29.2444 10.7795 29.2381 10.492 29.2256 10.2108C30.5105 9.28156 31.6193 8.13062 32.5 6.81201C31.3034 7.34441 30.0329 7.69212 28.7319 7.84326C30.1017 7.02216 31.1274 5.73224 31.6187 4.21264C30.3301 4.97636 28.9208 5.5151 27.4513 5.80576C26.4611 4.7537 25.152 4.0571 23.7262 3.82368C22.3005 3.59026 20.8376 3.83302 19.5637 4.51441C18.2897 5.1958 17.2757 6.27789 16.6785 7.59336C16.0812 8.90884 15.9339 10.3844 16.2594 11.792C13.65 11.6611 11.0972 10.9832 8.76664 9.80241C6.43604 8.6216 4.37959 6.9642 2.73062 4.93764C1.89253 6.38261 1.63608 8.09247 2.01337 9.71974C2.39067 11.347 3.37342 12.7695 4.76188 13.6983C3.7195 13.6652 2.69997 13.3845 1.7875 12.8795V12.9608C1.78657 14.4771 2.3108 15.9471 3.27108 17.1206C4.23136 18.2942 5.56843 19.099 7.055 19.3983C6.08941 19.6625 5.07598 19.7009 4.09313 19.5108C4.51261 20.8149 5.32876 21.9555 6.42769 22.7734C7.52662 23.5913 8.85349 24.0457 10.2231 24.0733C7.8979 25.8998 5.02557 26.8904 2.06875 26.8858C1.54438 26.885 1.02053 26.8528 0.5 26.7895C3.50381 28.7166 6.99804 29.7401 10.5669 29.7383Z" fill="#FAFAFA"/>
</g>
<defs>
<clipPath id="clip0_433_4005">
<rect width="32" height="32" fill="white" transform="translate(0.5 0.738281)"/>
</clipPath>
</defs>
</svg>
