<svg width="272" height="48" viewBox="0 0 272 48" fill="none" xmlns="http://www.w3.org/2000/svg">
<g filter="url(#filter0_d_520_8934)">
<rect x="2.5" y="1" width="267" height="44" rx="8" fill="black"/>
<path d="M68.3428 28.1447C68.0101 28.9133 67.6163 29.6208 67.16 30.2713C66.5381 31.158 66.0288 31.7719 65.6364 32.1127C65.028 32.6722 64.3762 32.9587 63.6782 32.975C63.1771 32.975 62.5728 32.8324 61.8693 32.5432C61.1636 32.2553 60.515 32.1127 59.922 32.1127C59.3 32.1127 58.633 32.2553 57.9195 32.5432C57.2049 32.8324 56.6293 32.9832 56.1892 32.9981C55.5198 33.0266 54.8526 32.7319 54.1867 32.1127C53.7616 31.742 53.23 31.1064 52.5931 30.2061C51.9098 29.2446 51.348 28.1297 50.9078 26.8587C50.4365 25.4857 50.2002 24.1563 50.2002 22.8692C50.2002 21.3948 50.5188 20.1232 51.1569 19.0576C51.6584 18.2017 52.3256 17.5265 53.1606 17.0308C53.9956 16.5351 54.8979 16.2826 55.8695 16.2664C56.4011 16.2664 57.0983 16.4309 57.9647 16.7541C58.8287 17.0783 59.3834 17.2428 59.6266 17.2428C59.8085 17.2428 60.4247 17.0505 61.4694 16.6671C62.4573 16.3116 63.2911 16.1644 63.9742 16.2224C65.8251 16.3718 67.2157 17.1014 68.1405 18.416C66.4851 19.419 65.6662 20.8238 65.6825 22.626C65.6975 24.0297 66.2067 25.1979 67.2076 26.1254C67.6611 26.5558 68.1676 26.8885 68.7312 27.1248C68.609 27.4793 68.48 27.8188 68.3428 28.1447ZM64.0978 11.4401C64.0978 12.5404 63.6958 13.5677 62.8946 14.5185C61.9277 15.6489 60.7582 16.3021 59.49 16.199C59.4738 16.067 59.4645 15.9281 59.4645 15.7821C59.4645 14.7259 59.9243 13.5955 60.7408 12.6713C61.1485 12.2033 61.667 11.8142 62.2957 11.5038C62.9231 11.1981 63.5166 11.029 64.0747 11C64.091 11.1471 64.0978 11.2942 64.0978 11.4401V11.4401Z" fill="white"/>
<path d="M88.268 29.112C87.532 29.112 86.8707 28.984 86.284 28.728C85.708 28.4613 85.2547 28.0987 84.924 27.64C84.5933 27.1707 84.4227 26.632 84.412 26.024H85.964C86.0173 26.5467 86.2307 26.9893 86.604 27.352C86.988 27.704 87.5427 27.88 88.268 27.88C88.9613 27.88 89.5053 27.7093 89.9 27.368C90.3053 27.016 90.508 26.568 90.508 26.024C90.508 25.5973 90.3907 25.2507 90.156 24.984C89.9213 24.7173 89.628 24.5147 89.276 24.376C88.924 24.2373 88.4493 24.088 87.852 23.928C87.116 23.736 86.524 23.544 86.076 23.352C85.6387 23.16 85.26 22.8613 84.94 22.456C84.6307 22.04 84.476 21.4853 84.476 20.792C84.476 20.184 84.6307 19.6453 84.94 19.176C85.2493 18.7067 85.6813 18.344 86.236 18.088C86.8013 17.832 87.4467 17.704 88.172 17.704C89.2173 17.704 90.0707 17.9653 90.732 18.488C91.404 19.0107 91.7827 19.704 91.868 20.568H90.268C90.2147 20.1413 89.9907 19.768 89.596 19.448C89.2013 19.1173 88.6787 18.952 88.028 18.952C87.42 18.952 86.924 19.112 86.54 19.432C86.156 19.7413 85.964 20.1787 85.964 20.744C85.964 21.1493 86.076 21.48 86.3 21.736C86.5347 21.992 86.8173 22.1893 87.148 22.328C87.4893 22.456 87.964 22.6053 88.572 22.776C89.308 22.9787 89.9 23.1813 90.348 23.384C90.796 23.576 91.18 23.88 91.5 24.296C91.82 24.7013 91.98 25.256 91.98 25.96C91.98 26.504 91.836 27.016 91.548 27.496C91.26 27.976 90.8333 28.3653 90.268 28.664C89.7027 28.9627 89.036 29.112 88.268 29.112ZM94.8746 18.808C94.5973 18.808 94.3626 18.712 94.1706 18.52C93.9786 18.328 93.8826 18.0933 93.8826 17.816C93.8826 17.5387 93.9786 17.304 94.1706 17.112C94.3626 16.92 94.5973 16.824 94.8746 16.824C95.1413 16.824 95.3653 16.92 95.5466 17.112C95.7386 17.304 95.8346 17.5387 95.8346 17.816C95.8346 18.0933 95.7386 18.328 95.5466 18.52C95.3653 18.712 95.1413 18.808 94.8746 18.808ZM95.5786 20.232V29H94.1226V20.232H95.5786ZM101.676 20.088C102.433 20.088 103.095 20.2533 103.66 20.584C104.236 20.9147 104.663 21.3307 104.94 21.832V20.232H106.412V29.192C106.412 29.992 106.241 30.7013 105.9 31.32C105.559 31.9493 105.068 32.44 104.428 32.792C103.799 33.144 103.063 33.32 102.22 33.32C101.068 33.32 100.108 33.048 99.3401 32.504C98.5721 31.96 98.1188 31.2187 97.9801 30.28H99.4201C99.5801 30.8133 99.9108 31.24 100.412 31.56C100.913 31.8907 101.516 32.056 102.22 32.056C103.02 32.056 103.671 31.8053 104.172 31.304C104.684 30.8027 104.94 30.0987 104.94 29.192V27.352C104.652 27.864 104.225 28.2907 103.66 28.632C103.095 28.9733 102.433 29.144 101.676 29.144C100.897 29.144 100.188 28.952 99.5481 28.568C98.9188 28.184 98.4228 27.6453 98.0601 26.952C97.6975 26.2587 97.5161 25.4693 97.5161 24.584C97.5161 23.688 97.6975 22.904 98.0601 22.232C98.4228 21.5493 98.9188 21.0213 99.5481 20.648C100.188 20.2747 100.897 20.088 101.676 20.088ZM104.94 24.6C104.94 23.9387 104.807 23.3627 104.54 22.872C104.273 22.3813 103.911 22.008 103.452 21.752C103.004 21.4853 102.508 21.352 101.964 21.352C101.42 21.352 100.924 21.48 100.476 21.736C100.028 21.992 99.6708 22.3653 99.4041 22.856C99.1375 23.3467 99.0041 23.9227 99.0041 24.584C99.0041 25.256 99.1375 25.8427 99.4041 26.344C99.6708 26.8347 100.028 27.2133 100.476 27.48C100.924 27.736 101.42 27.864 101.964 27.864C102.508 27.864 103.004 27.736 103.452 27.48C103.911 27.2133 104.273 26.8347 104.54 26.344C104.807 25.8427 104.94 25.2613 104.94 24.6ZM113.145 20.072C114.211 20.072 115.075 20.3973 115.737 21.048C116.398 21.688 116.729 22.616 116.729 23.832V29H115.289V24.04C115.289 23.1653 115.07 22.4987 114.633 22.04C114.195 21.5707 113.598 21.336 112.841 21.336C112.073 21.336 111.459 21.576 111.001 22.056C110.553 22.536 110.329 23.2347 110.329 24.152V29H108.873V20.232H110.329V21.48C110.617 21.032 111.006 20.6853 111.497 20.44C111.998 20.1947 112.547 20.072 113.145 20.072ZM124.125 18.808C123.847 18.808 123.613 18.712 123.421 18.52C123.229 18.328 123.133 18.0933 123.133 17.816C123.133 17.5387 123.229 17.304 123.421 17.112C123.613 16.92 123.847 16.824 124.125 16.824C124.391 16.824 124.615 16.92 124.797 17.112C124.989 17.304 125.085 17.5387 125.085 17.816C125.085 18.0933 124.989 18.328 124.797 18.52C124.615 18.712 124.391 18.808 124.125 18.808ZM124.829 20.232V29H123.373V20.232H124.829ZM131.582 20.072C132.649 20.072 133.513 20.3973 134.174 21.048C134.835 21.688 135.166 22.616 135.166 23.832V29H133.726V24.04C133.726 23.1653 133.507 22.4987 133.07 22.04C132.633 21.5707 132.035 21.336 131.278 21.336C130.51 21.336 129.897 21.576 129.438 22.056C128.99 22.536 128.766 23.2347 128.766 24.152V29H127.31V20.232H128.766V21.48C129.054 21.032 129.443 20.6853 129.934 20.44C130.435 20.1947 130.985 20.072 131.582 20.072ZM153.49 20.232L150.754 29H149.25L147.138 22.04L145.026 29H143.522L140.77 20.232H142.258L144.274 27.592L146.45 20.232H147.938L150.066 27.608L152.05 20.232H153.49ZM155.687 18.808C155.41 18.808 155.175 18.712 154.983 18.52C154.791 18.328 154.695 18.0933 154.695 17.816C154.695 17.5387 154.791 17.304 154.983 17.112C155.175 16.92 155.41 16.824 155.687 16.824C155.954 16.824 156.178 16.92 156.359 17.112C156.551 17.304 156.647 17.5387 156.647 17.816C156.647 18.0933 156.551 18.328 156.359 18.52C156.178 18.712 155.954 18.808 155.687 18.808ZM156.391 20.232V29H154.935V20.232H156.391ZM160.649 21.432V26.6C160.649 27.0267 160.739 27.3307 160.921 27.512C161.102 27.6827 161.417 27.768 161.865 27.768H162.937V29H161.625C160.814 29 160.206 28.8133 159.801 28.44C159.395 28.0667 159.193 27.4533 159.193 26.6V21.432H158.057V20.232H159.193V18.024H160.649V20.232H162.937V21.432H160.649ZM169.053 20.072C169.714 20.072 170.311 20.216 170.845 20.504C171.378 20.7813 171.794 21.2027 172.093 21.768C172.402 22.3333 172.557 23.0213 172.557 23.832V29H171.117V24.04C171.117 23.1653 170.898 22.4987 170.461 22.04C170.023 21.5707 169.426 21.336 168.669 21.336C167.901 21.336 167.287 21.576 166.829 22.056C166.381 22.536 166.157 23.2347 166.157 24.152V29H164.701V17.16H166.157V21.48C166.445 21.032 166.839 20.6853 167.341 20.44C167.853 20.1947 168.423 20.072 169.053 20.072ZM185.793 26.52H180.929L180.033 29H178.497L182.529 17.912H184.209L188.225 29H186.689L185.793 26.52ZM185.377 25.336L183.361 19.704L181.345 25.336H185.377ZM191.438 21.848C191.726 21.3467 192.153 20.9307 192.718 20.6C193.294 20.2587 193.961 20.088 194.718 20.088C195.497 20.088 196.201 20.2747 196.83 20.648C197.47 21.0213 197.971 21.5493 198.334 22.232C198.697 22.904 198.878 23.688 198.878 24.584C198.878 25.4693 198.697 26.2587 198.334 26.952C197.971 27.6453 197.47 28.184 196.83 28.568C196.201 28.952 195.497 29.144 194.718 29.144C193.971 29.144 193.31 28.9787 192.734 28.648C192.169 28.3067 191.737 27.8853 191.438 27.384V33.16H189.982V20.232H191.438V21.848ZM197.39 24.584C197.39 23.9227 197.257 23.3467 196.99 22.856C196.723 22.3653 196.361 21.992 195.902 21.736C195.454 21.48 194.958 21.352 194.414 21.352C193.881 21.352 193.385 21.4853 192.926 21.752C192.478 22.008 192.115 22.3867 191.838 22.888C191.571 23.3787 191.438 23.9493 191.438 24.6C191.438 25.2613 191.571 25.8427 191.838 26.344C192.115 26.8347 192.478 27.2133 192.926 27.48C193.385 27.736 193.881 27.864 194.414 27.864C194.958 27.864 195.454 27.736 195.902 27.48C196.361 27.2133 196.723 26.8347 196.99 26.344C197.257 25.8427 197.39 25.256 197.39 24.584ZM202.251 21.848C202.539 21.3467 202.965 20.9307 203.531 20.6C204.107 20.2587 204.773 20.088 205.531 20.088C206.309 20.088 207.013 20.2747 207.642 20.648C208.282 21.0213 208.784 21.5493 209.147 22.232C209.509 22.904 209.691 23.688 209.691 24.584C209.691 25.4693 209.509 26.2587 209.147 26.952C208.784 27.6453 208.282 28.184 207.642 28.568C207.013 28.952 206.309 29.144 205.531 29.144C204.784 29.144 204.123 28.9787 203.547 28.648C202.981 28.3067 202.549 27.8853 202.251 27.384V33.16H200.795V20.232H202.251V21.848ZM208.203 24.584C208.203 23.9227 208.069 23.3467 207.803 22.856C207.536 22.3653 207.173 21.992 206.715 21.736C206.267 21.48 205.771 21.352 205.227 21.352C204.693 21.352 204.197 21.4853 203.739 21.752C203.291 22.008 202.928 22.3867 202.651 22.888C202.384 23.3787 202.251 23.9493 202.251 24.6C202.251 25.2613 202.384 25.8427 202.651 26.344C202.928 26.8347 203.291 27.2133 203.739 27.48C204.197 27.736 204.693 27.864 205.227 27.864C205.771 27.864 206.267 27.736 206.715 27.48C207.173 27.2133 207.536 26.8347 207.803 26.344C208.069 25.8427 208.203 25.256 208.203 24.584ZM213.063 17.16V29H211.607V17.16H213.063ZM223.545 24.28C223.545 24.5573 223.529 24.8507 223.497 25.16H216.489C216.542 26.024 216.835 26.7013 217.369 27.192C217.913 27.672 218.569 27.912 219.337 27.912C219.966 27.912 220.489 27.768 220.905 27.48C221.331 27.1813 221.63 26.7867 221.801 26.296H223.369C223.134 27.1387 222.665 27.8267 221.961 28.36C221.257 28.8827 220.382 29.144 219.337 29.144C218.505 29.144 217.758 28.9573 217.097 28.584C216.446 28.2107 215.934 27.6827 215.561 27C215.187 26.3067 215.001 25.5067 215.001 24.6C215.001 23.6933 215.182 22.8987 215.545 22.216C215.907 21.5333 216.414 21.0107 217.065 20.648C217.726 20.2747 218.483 20.088 219.337 20.088C220.169 20.088 220.905 20.2693 221.545 20.632C222.185 20.9947 222.675 21.496 223.017 22.136C223.369 22.7653 223.545 23.48 223.545 24.28ZM222.041 23.976C222.041 23.4213 221.918 22.9467 221.673 22.552C221.427 22.1467 221.091 21.8427 220.665 21.64C220.249 21.4267 219.785 21.32 219.273 21.32C218.537 21.32 217.907 21.5547 217.385 22.024C216.873 22.4933 216.579 23.144 216.505 23.976H222.041Z" fill="white"/>
</g>
<defs>
<filter id="filter0_d_520_8934" x="0.5" y="0" width="271" height="48" filterUnits="userSpaceOnUse" color-interpolation-filters="sRGB">
<feFlood flood-opacity="0" result="BackgroundImageFix"/>
<feColorMatrix in="SourceAlpha" type="matrix" values="0 0 0 0 0 0 0 0 0 0 0 0 0 0 0 0 0 0 127 0" result="hardAlpha"/>
<feOffset dy="1"/>
<feGaussianBlur stdDeviation="1"/>
<feColorMatrix type="matrix" values="0 0 0 0 0.0627451 0 0 0 0 0.0941176 0 0 0 0 0.156863 0 0 0 0.05 0"/>
<feBlend mode="normal" in2="BackgroundImageFix" result="effect1_dropShadow_520_8934"/>
<feBlend mode="normal" in="SourceGraphic" in2="effect1_dropShadow_520_8934" result="shape"/>
</filter>
</defs>
</svg>
