<svg width="78" height="48" viewBox="0 0 78 48" fill="none" xmlns="http://www.w3.org/2000/svg">
<g filter="url(#filter0_d_520_9074)">
<rect x="2.5" y="1" width="73" height="44" rx="8" fill="black"/>
<path d="M47.8428 28.1447C47.5101 28.9133 47.1163 29.6208 46.66 30.2713C46.0381 31.158 45.5288 31.7719 45.1364 32.1127C44.528 32.6722 43.8762 32.9587 43.1782 32.975C42.6771 32.975 42.0728 32.8324 41.3693 32.5432C40.6636 32.2553 40.015 32.1127 39.422 32.1127C38.8 32.1127 38.133 32.2553 37.4195 32.5432C36.7049 32.8324 36.1293 32.9832 35.6892 32.9981C35.0198 33.0266 34.3526 32.7319 33.6867 32.1127C33.2616 31.742 32.73 31.1064 32.0931 30.2061C31.4098 29.2446 30.848 28.1297 30.4078 26.8587C29.9365 25.4857 29.7002 24.1563 29.7002 22.8692C29.7002 21.3948 30.0188 20.1232 30.6569 19.0576C31.1584 18.2017 31.8256 17.5265 32.6606 17.0308C33.4956 16.5351 34.3979 16.2826 35.3695 16.2664C35.9011 16.2664 36.5983 16.4309 37.4647 16.7541C38.3287 17.0783 38.8834 17.2428 39.1266 17.2428C39.3085 17.2428 39.9247 17.0505 40.9694 16.6671C41.9573 16.3116 42.7911 16.1644 43.4742 16.2224C45.3251 16.3718 46.7157 17.1014 47.6405 18.416C45.9851 19.419 45.1662 20.8238 45.1825 22.626C45.1975 24.0297 45.7067 25.1979 46.7076 26.1254C47.1611 26.5558 47.6676 26.8885 48.2312 27.1248C48.109 27.4793 47.98 27.8188 47.8428 28.1447ZM43.5978 11.4401C43.5978 12.5404 43.1958 13.5677 42.3946 14.5185C41.4277 15.6489 40.2582 16.3021 38.99 16.199C38.9738 16.067 38.9645 15.9281 38.9645 15.7821C38.9645 14.7259 39.4243 13.5955 40.2408 12.6713C40.6485 12.2033 41.167 11.8142 41.7957 11.5038C42.4231 11.1981 43.0166 11.029 43.5747 11C43.591 11.1471 43.5978 11.2942 43.5978 11.4401V11.4401Z" fill="white"/>
</g>
<defs>
<filter id="filter0_d_520_9074" x="0.5" y="0" width="77" height="48" filterUnits="userSpaceOnUse" color-interpolation-filters="sRGB">
<feFlood flood-opacity="0" result="BackgroundImageFix"/>
<feColorMatrix in="SourceAlpha" type="matrix" values="0 0 0 0 0 0 0 0 0 0 0 0 0 0 0 0 0 0 127 0" result="hardAlpha"/>
<feOffset dy="1"/>
<feGaussianBlur stdDeviation="1"/>
<feColorMatrix type="matrix" values="0 0 0 0 0.0627451 0 0 0 0 0.0941176 0 0 0 0 0.156863 0 0 0 0.05 0"/>
<feBlend mode="normal" in2="BackgroundImageFix" result="effect1_dropShadow_520_9074"/>
<feBlend mode="normal" in="SourceGraphic" in2="effect1_dropShadow_520_9074" result="shape"/>
</filter>
</defs>
</svg>
