<svg width="24" height="24" viewBox="0 0 24 24" fill="none" xmlns="http://www.w3.org/2000/svg">
<g id="call">
<path id="Union" fill-rule="evenodd" clip-rule="evenodd" d="M10.4999 6.47732L7.48801 3.28143C7.07851 2.89115 6.43231 2.90899 6.04467 3.32128L5.37155 4.03721L5.21213 4.21538C3.97473 5.66885 3.65062 7.78412 4.39787 9.65009C5.49814 12.3976 6.84206 14.6143 8.42964 16.3C10.0172 17.9857 12.1042 19.412 14.6906 20.5789C16.5203 21.4045 18.6035 20.9944 19.9715 19.5395L20.7205 18.7428C21.0934 18.3462 21.0931 17.7252 20.7199 17.3289L17.708 14.133C17.2985 13.7427 16.6523 13.7606 16.2646 14.1729L14.8845 15.6407L14.5944 15.5281C12.0033 14.4708 9.95876 12.2348 9.04455 9.43982L10.5005 7.89127C10.8734 7.49463 10.8732 6.87363 10.4999 6.47732Z" fill="#D12065"/>
</g>
</svg>
