<svg width="30" height="30" viewBox="0 0 30 30" fill="none" xmlns="http://www.w3.org/2000/svg">
<path d="M4.47304 0.736311L15 11.2628L25.4724 0.790852C25.7037 0.544645 25.9824 0.347688 26.2917 0.211791C26.601 0.0758941 26.9346 0.00385703 27.2724 0C27.9957 0 28.6893 0.287316 29.2008 0.798742C29.7122 1.31017 29.9996 2.00381 29.9996 2.72708C30.0059 3.06142 29.9439 3.39354 29.8173 3.70305C29.6906 4.01256 29.5021 4.29292 29.2632 4.52695L18.6544 14.9989L29.2632 25.6073C29.7127 26.047 29.9763 26.6424 29.9996 27.2708C29.9996 27.994 29.7122 28.6877 29.2008 29.1991C28.6893 29.7105 27.9957 29.9978 27.2724 29.9978C26.9248 30.0123 26.578 29.9543 26.2541 29.8275C25.9301 29.7007 25.6361 29.508 25.3906 29.2615L15 18.735L4.50031 29.2343C4.26988 29.4723 3.99459 29.6623 3.69034 29.7933C3.38609 29.9244 3.05889 29.9939 2.72764 29.9978C2.00434 29.9978 1.31067 29.7105 0.79922 29.1991C0.287772 28.6877 0.000443732 27.994 0.000443732 27.2708C-0.0059147 26.9364 0.0561205 26.6043 0.182743 26.2948C0.309365 25.9853 0.497903 25.7049 0.736786 25.4709L11.3456 14.9989L0.736786 4.39059C0.287303 3.95088 0.0237329 3.35543 0.000443732 2.72708C0.000443732 2.00381 0.287772 1.31017 0.79922 0.798742C1.31067 0.287316 2.00434 0 2.72764 0C3.38216 0.00818123 4.00942 0.272708 4.47304 0.736311Z" fill="#979797"/>
</svg>
