<svg width="272" height="48" viewBox="0 0 272 48" fill="none" xmlns="http://www.w3.org/2000/svg">
<g filter="url(#filter0_d_520_8927)">
<rect x="2.5" y="1" width="267" height="44" rx="8" fill="#1877F2"/>
<g clip-path="url(#clip0_520_8927)">
<path d="M55.5 23C55.5 16.3726 50.1274 11 43.5 11C36.8726 11 31.5 16.3726 31.5 23C31.5 28.9895 35.8882 33.954 41.625 34.8542V26.4688H38.5781V23H41.625V20.3563C41.625 17.3488 43.4166 15.6875 46.1576 15.6875C47.4701 15.6875 48.8438 15.9219 48.8438 15.9219V18.875H47.3306C45.84 18.875 45.375 19.8001 45.375 20.75V23H48.7031L48.1711 26.4688H45.375V34.8542C51.1118 33.954 55.5 28.9895 55.5 23Z" fill="white"/>
</g>
<path d="M72.268 29.112C71.532 29.112 70.8707 28.984 70.284 28.728C69.708 28.4613 69.2547 28.0987 68.924 27.64C68.5933 27.1707 68.4227 26.632 68.412 26.024H69.964C70.0173 26.5467 70.2307 26.9893 70.604 27.352C70.988 27.704 71.5427 27.88 72.268 27.88C72.9613 27.88 73.5053 27.7093 73.9 27.368C74.3053 27.016 74.508 26.568 74.508 26.024C74.508 25.5973 74.3907 25.2507 74.156 24.984C73.9213 24.7173 73.628 24.5147 73.276 24.376C72.924 24.2373 72.4493 24.088 71.852 23.928C71.116 23.736 70.524 23.544 70.076 23.352C69.6387 23.16 69.26 22.8613 68.94 22.456C68.6307 22.04 68.476 21.4853 68.476 20.792C68.476 20.184 68.6307 19.6453 68.94 19.176C69.2493 18.7067 69.6813 18.344 70.236 18.088C70.8013 17.832 71.4467 17.704 72.172 17.704C73.2173 17.704 74.0707 17.9653 74.732 18.488C75.404 19.0107 75.7827 19.704 75.868 20.568H74.268C74.2147 20.1413 73.9907 19.768 73.596 19.448C73.2013 19.1173 72.6787 18.952 72.028 18.952C71.42 18.952 70.924 19.112 70.54 19.432C70.156 19.7413 69.964 20.1787 69.964 20.744C69.964 21.1493 70.076 21.48 70.3 21.736C70.5347 21.992 70.8173 22.1893 71.148 22.328C71.4893 22.456 71.964 22.6053 72.572 22.776C73.308 22.9787 73.9 23.1813 74.348 23.384C74.796 23.576 75.18 23.88 75.5 24.296C75.82 24.7013 75.98 25.256 75.98 25.96C75.98 26.504 75.836 27.016 75.548 27.496C75.26 27.976 74.8333 28.3653 74.268 28.664C73.7027 28.9627 73.036 29.112 72.268 29.112ZM78.8746 18.808C78.5973 18.808 78.3626 18.712 78.1706 18.52C77.9786 18.328 77.8826 18.0933 77.8826 17.816C77.8826 17.5387 77.9786 17.304 78.1706 17.112C78.3626 16.92 78.5973 16.824 78.8746 16.824C79.1413 16.824 79.3653 16.92 79.5466 17.112C79.7386 17.304 79.8346 17.5387 79.8346 17.816C79.8346 18.0933 79.7386 18.328 79.5466 18.52C79.3653 18.712 79.1413 18.808 78.8746 18.808ZM79.5786 20.232V29H78.1226V20.232H79.5786ZM85.6761 20.088C86.4335 20.088 87.0948 20.2533 87.6601 20.584C88.2361 20.9147 88.6628 21.3307 88.9401 21.832V20.232H90.4121V29.192C90.4121 29.992 90.2415 30.7013 89.9001 31.32C89.5588 31.9493 89.0681 32.44 88.4281 32.792C87.7988 33.144 87.0628 33.32 86.2201 33.32C85.0681 33.32 84.1081 33.048 83.3401 32.504C82.5721 31.96 82.1188 31.2187 81.9801 30.28H83.4201C83.5801 30.8133 83.9108 31.24 84.4121 31.56C84.9135 31.8907 85.5161 32.056 86.2201 32.056C87.0201 32.056 87.6708 31.8053 88.1721 31.304C88.6841 30.8027 88.9401 30.0987 88.9401 29.192V27.352C88.6521 27.864 88.2255 28.2907 87.6601 28.632C87.0948 28.9733 86.4335 29.144 85.6761 29.144C84.8975 29.144 84.1881 28.952 83.5481 28.568C82.9188 28.184 82.4228 27.6453 82.0601 26.952C81.6975 26.2587 81.5161 25.4693 81.5161 24.584C81.5161 23.688 81.6975 22.904 82.0601 22.232C82.4228 21.5493 82.9188 21.0213 83.5481 20.648C84.1881 20.2747 84.8975 20.088 85.6761 20.088ZM88.9401 24.6C88.9401 23.9387 88.8068 23.3627 88.5401 22.872C88.2735 22.3813 87.9108 22.008 87.4521 21.752C87.0041 21.4853 86.5081 21.352 85.9641 21.352C85.4201 21.352 84.9241 21.48 84.4761 21.736C84.0281 21.992 83.6708 22.3653 83.4041 22.856C83.1375 23.3467 83.0041 23.9227 83.0041 24.584C83.0041 25.256 83.1375 25.8427 83.4041 26.344C83.6708 26.8347 84.0281 27.2133 84.4761 27.48C84.9241 27.736 85.4201 27.864 85.9641 27.864C86.5081 27.864 87.0041 27.736 87.4521 27.48C87.9108 27.2133 88.2735 26.8347 88.5401 26.344C88.8068 25.8427 88.9401 25.2613 88.9401 24.6ZM97.1446 20.072C98.2113 20.072 99.0753 20.3973 99.7366 21.048C100.398 21.688 100.729 22.616 100.729 23.832V29H99.2886V24.04C99.2886 23.1653 99.07 22.4987 98.6326 22.04C98.1953 21.5707 97.598 21.336 96.8406 21.336C96.0726 21.336 95.4593 21.576 95.0006 22.056C94.5526 22.536 94.3286 23.2347 94.3286 24.152V29H92.8726V20.232H94.3286V21.48C94.6166 21.032 95.006 20.6853 95.4966 20.44C95.998 20.1947 96.5473 20.072 97.1446 20.072ZM108.125 18.808C107.847 18.808 107.613 18.712 107.421 18.52C107.229 18.328 107.133 18.0933 107.133 17.816C107.133 17.5387 107.229 17.304 107.421 17.112C107.613 16.92 107.847 16.824 108.125 16.824C108.391 16.824 108.615 16.92 108.797 17.112C108.989 17.304 109.085 17.5387 109.085 17.816C109.085 18.0933 108.989 18.328 108.797 18.52C108.615 18.712 108.391 18.808 108.125 18.808ZM108.829 20.232V29H107.373V20.232H108.829ZM115.582 20.072C116.649 20.072 117.513 20.3973 118.174 21.048C118.835 21.688 119.166 22.616 119.166 23.832V29H117.726V24.04C117.726 23.1653 117.507 22.4987 117.07 22.04C116.633 21.5707 116.035 21.336 115.278 21.336C114.51 21.336 113.897 21.576 113.438 22.056C112.99 22.536 112.766 23.2347 112.766 24.152V29H111.31V20.232H112.766V21.48C113.054 21.032 113.443 20.6853 113.934 20.44C114.435 20.1947 114.985 20.072 115.582 20.072ZM137.49 20.232L134.754 29H133.25L131.138 22.04L129.026 29H127.522L124.77 20.232H126.258L128.274 27.592L130.45 20.232H131.938L134.066 27.608L136.05 20.232H137.49ZM139.687 18.808C139.41 18.808 139.175 18.712 138.983 18.52C138.791 18.328 138.695 18.0933 138.695 17.816C138.695 17.5387 138.791 17.304 138.983 17.112C139.175 16.92 139.41 16.824 139.687 16.824C139.954 16.824 140.178 16.92 140.359 17.112C140.551 17.304 140.647 17.5387 140.647 17.816C140.647 18.0933 140.551 18.328 140.359 18.52C140.178 18.712 139.954 18.808 139.687 18.808ZM140.391 20.232V29H138.935V20.232H140.391ZM144.649 21.432V26.6C144.649 27.0267 144.739 27.3307 144.921 27.512C145.102 27.6827 145.417 27.768 145.865 27.768H146.937V29H145.625C144.814 29 144.206 28.8133 143.801 28.44C143.395 28.0667 143.193 27.4533 143.193 26.6V21.432H142.057V20.232H143.193V18.024H144.649V20.232H146.937V21.432H144.649ZM153.053 20.072C153.714 20.072 154.311 20.216 154.845 20.504C155.378 20.7813 155.794 21.2027 156.093 21.768C156.402 22.3333 156.557 23.0213 156.557 23.832V29H155.117V24.04C155.117 23.1653 154.898 22.4987 154.461 22.04C154.023 21.5707 153.426 21.336 152.669 21.336C151.901 21.336 151.287 21.576 150.829 22.056C150.381 22.536 150.157 23.2347 150.157 24.152V29H148.701V17.16H150.157V21.48C150.445 21.032 150.839 20.6853 151.341 20.44C151.853 20.1947 152.423 20.072 153.053 20.072ZM169.505 17.848V19.032H164.657V22.792H168.593V23.976H164.657V29H163.201V17.848H169.505ZM170.719 24.584C170.719 23.688 170.901 22.904 171.263 22.232C171.626 21.5493 172.122 21.0213 172.751 20.648C173.391 20.2747 174.101 20.088 174.879 20.088C175.647 20.088 176.314 20.2533 176.879 20.584C177.445 20.9147 177.866 21.3307 178.143 21.832V20.232H179.615V29H178.143V27.368C177.855 27.88 177.423 28.3067 176.847 28.648C176.282 28.9787 175.621 29.144 174.863 29.144C174.085 29.144 173.381 28.952 172.751 28.568C172.122 28.184 171.626 27.6453 171.263 26.952C170.901 26.2587 170.719 25.4693 170.719 24.584ZM178.143 24.6C178.143 23.9387 178.01 23.3627 177.743 22.872C177.477 22.3813 177.114 22.008 176.655 21.752C176.207 21.4853 175.711 21.352 175.167 21.352C174.623 21.352 174.127 21.48 173.679 21.736C173.231 21.992 172.874 22.3653 172.607 22.856C172.341 23.3467 172.207 23.9227 172.207 24.584C172.207 25.256 172.341 25.8427 172.607 26.344C172.874 26.8347 173.231 27.2133 173.679 27.48C174.127 27.736 174.623 27.864 175.167 27.864C175.711 27.864 176.207 27.736 176.655 27.48C177.114 27.2133 177.477 26.8347 177.743 26.344C178.01 25.8427 178.143 25.2613 178.143 24.6ZM181.532 24.6C181.532 23.6933 181.713 22.904 182.076 22.232C182.438 21.5493 182.94 21.0213 183.58 20.648C184.23 20.2747 184.972 20.088 185.804 20.088C186.881 20.088 187.766 20.3493 188.46 20.872C189.164 21.3947 189.628 22.12 189.852 23.048H188.284C188.134 22.5147 187.841 22.0933 187.404 21.784C186.977 21.4747 186.444 21.32 185.804 21.32C184.972 21.32 184.3 21.608 183.788 22.184C183.276 22.7493 183.02 23.5547 183.02 24.6C183.02 25.656 183.276 26.472 183.788 27.048C184.3 27.624 184.972 27.912 185.804 27.912C186.444 27.912 186.977 27.7627 187.404 27.464C187.83 27.1653 188.124 26.7387 188.284 26.184H189.852C189.617 27.08 189.148 27.8 188.444 28.344C187.74 28.8773 186.86 29.144 185.804 29.144C184.972 29.144 184.23 28.9573 183.58 28.584C182.94 28.2107 182.438 27.6827 182.076 27C181.713 26.3173 181.532 25.5173 181.532 24.6ZM199.795 24.28C199.795 24.5573 199.779 24.8507 199.747 25.16H192.739C192.792 26.024 193.085 26.7013 193.619 27.192C194.163 27.672 194.819 27.912 195.587 27.912C196.216 27.912 196.739 27.768 197.155 27.48C197.581 27.1813 197.88 26.7867 198.051 26.296H199.619C199.384 27.1387 198.915 27.8267 198.211 28.36C197.507 28.8827 196.632 29.144 195.587 29.144C194.755 29.144 194.008 28.9573 193.347 28.584C192.696 28.2107 192.184 27.6827 191.811 27C191.437 26.3067 191.251 25.5067 191.251 24.6C191.251 23.6933 191.432 22.8987 191.795 22.216C192.157 21.5333 192.664 21.0107 193.315 20.648C193.976 20.2747 194.733 20.088 195.587 20.088C196.419 20.088 197.155 20.2693 197.795 20.632C198.435 20.9947 198.925 21.496 199.267 22.136C199.619 22.7653 199.795 23.48 199.795 24.28ZM198.291 23.976C198.291 23.4213 198.168 22.9467 197.923 22.552C197.677 22.1467 197.341 21.8427 196.915 21.64C196.499 21.4267 196.035 21.32 195.523 21.32C194.787 21.32 194.157 21.5547 193.635 22.024C193.123 22.4933 192.829 23.144 192.755 23.976H198.291ZM203.172 21.864C203.471 21.3413 203.908 20.9147 204.484 20.584C205.06 20.2533 205.716 20.088 206.452 20.088C207.242 20.088 207.951 20.2747 208.58 20.648C209.21 21.0213 209.706 21.5493 210.068 22.232C210.431 22.904 210.612 23.688 210.612 24.584C210.612 25.4693 210.431 26.2587 210.068 26.952C209.706 27.6453 209.204 28.184 208.564 28.568C207.935 28.952 207.231 29.144 206.452 29.144C205.695 29.144 205.028 28.9787 204.452 28.648C203.887 28.3173 203.46 27.896 203.172 27.384V29H201.716V17.16H203.172V21.864ZM209.124 24.584C209.124 23.9227 208.991 23.3467 208.724 22.856C208.458 22.3653 208.095 21.992 207.636 21.736C207.188 21.48 206.692 21.352 206.148 21.352C205.615 21.352 205.119 21.4853 204.66 21.752C204.212 22.008 203.85 22.3867 203.572 22.888C203.306 23.3787 203.172 23.9493 203.172 24.6C203.172 25.2613 203.306 25.8427 203.572 26.344C203.85 26.8347 204.212 27.2133 204.66 27.48C205.119 27.736 205.615 27.864 206.148 27.864C206.692 27.864 207.188 27.736 207.636 27.48C208.095 27.2133 208.458 26.8347 208.724 26.344C208.991 25.8427 209.124 25.256 209.124 24.584ZM216.353 29.144C215.532 29.144 214.785 28.9573 214.113 28.584C213.452 28.2107 212.929 27.6827 212.545 27C212.172 26.3067 211.985 25.5067 211.985 24.6C211.985 23.704 212.177 22.9147 212.561 22.232C212.956 21.5387 213.489 21.0107 214.161 20.648C214.833 20.2747 215.585 20.088 216.417 20.088C217.249 20.088 218.001 20.2747 218.673 20.648C219.345 21.0107 219.873 21.5333 220.257 22.216C220.652 22.8987 220.849 23.6933 220.849 24.6C220.849 25.5067 220.646 26.3067 220.241 27C219.846 27.6827 219.308 28.2107 218.625 28.584C217.942 28.9573 217.185 29.144 216.353 29.144ZM216.353 27.864C216.876 27.864 217.366 27.7413 217.825 27.496C218.284 27.2507 218.652 26.8827 218.929 26.392C219.217 25.9013 219.361 25.304 219.361 24.6C219.361 23.896 219.222 23.2987 218.945 22.808C218.668 22.3173 218.305 21.9547 217.857 21.72C217.409 21.4747 216.924 21.352 216.401 21.352C215.868 21.352 215.377 21.4747 214.929 21.72C214.492 21.9547 214.14 22.3173 213.873 22.808C213.606 23.2987 213.473 23.896 213.473 24.6C213.473 25.3147 213.601 25.9173 213.857 26.408C214.124 26.8987 214.476 27.2667 214.913 27.512C215.35 27.7467 215.83 27.864 216.353 27.864ZM226.587 29.144C225.766 29.144 225.019 28.9573 224.347 28.584C223.686 28.2107 223.163 27.6827 222.779 27C222.406 26.3067 222.219 25.5067 222.219 24.6C222.219 23.704 222.411 22.9147 222.795 22.232C223.19 21.5387 223.723 21.0107 224.395 20.648C225.067 20.2747 225.819 20.088 226.651 20.088C227.483 20.088 228.235 20.2747 228.907 20.648C229.579 21.0107 230.107 21.5333 230.491 22.216C230.886 22.8987 231.083 23.6933 231.083 24.6C231.083 25.5067 230.881 26.3067 230.475 27C230.081 27.6827 229.542 28.2107 228.859 28.584C228.177 28.9573 227.419 29.144 226.587 29.144ZM226.587 27.864C227.11 27.864 227.601 27.7413 228.059 27.496C228.518 27.2507 228.886 26.8827 229.163 26.392C229.451 25.9013 229.595 25.304 229.595 24.6C229.595 23.896 229.457 23.2987 229.179 22.808C228.902 22.3173 228.539 21.9547 228.091 21.72C227.643 21.4747 227.158 21.352 226.635 21.352C226.102 21.352 225.611 21.4747 225.163 21.72C224.726 21.9547 224.374 22.3173 224.107 22.808C223.841 23.2987 223.707 23.896 223.707 24.6C223.707 25.3147 223.835 25.9173 224.091 26.408C224.358 26.8987 224.71 27.2667 225.147 27.512C225.585 27.7467 226.065 27.864 226.587 27.864ZM237.894 29L234.454 25.128V29H232.998V17.16H234.454V24.12L237.83 20.232H239.862L235.734 24.6L239.878 29H237.894Z" fill="white"/>
</g>
<defs>
<filter id="filter0_d_520_8927" x="0.5" y="0" width="271" height="48" filterUnits="userSpaceOnUse" color-interpolation-filters="sRGB">
<feFlood flood-opacity="0" result="BackgroundImageFix"/>
<feColorMatrix in="SourceAlpha" type="matrix" values="0 0 0 0 0 0 0 0 0 0 0 0 0 0 0 0 0 0 127 0" result="hardAlpha"/>
<feOffset dy="1"/>
<feGaussianBlur stdDeviation="1"/>
<feColorMatrix type="matrix" values="0 0 0 0 0.0627451 0 0 0 0 0.0941176 0 0 0 0 0.156863 0 0 0 0.05 0"/>
<feBlend mode="normal" in2="BackgroundImageFix" result="effect1_dropShadow_520_8927"/>
<feBlend mode="normal" in="SourceGraphic" in2="effect1_dropShadow_520_8927" result="shape"/>
</filter>
<clipPath id="clip0_520_8927">
<rect width="24" height="24" fill="white" transform="translate(31.5 11)"/>
</clipPath>
</defs>
</svg>
