<svg width="78" height="48" viewBox="0 0 78 48" fill="none" xmlns="http://www.w3.org/2000/svg">
<g filter="url(#filter0_d_520_9072)">
<rect x="2.5" y="1" width="73" height="44" rx="8" fill="white"/>
<g clip-path="url(#clip0_520_9072)">
<path d="M50.7663 23.2763C50.7663 22.4605 50.7001 21.6404 50.559 20.8379H39.2402V25.4589H45.722C45.453 26.9492 44.5888 28.2676 43.3233 29.1054V32.1037H47.1903C49.4611 30.0137 50.7663 26.9272 50.7663 23.2763Z" fill="#4285F4"/>
<path d="M39.2401 35.0013C42.4766 35.0013 45.2059 33.9387 47.1945 32.1044L43.3276 29.106C42.2517 29.838 40.8627 30.2525 39.2445 30.2525C36.1139 30.2525 33.4595 28.1404 32.507 25.3008H28.5166V28.3917C30.5537 32.4439 34.7029 35.0013 39.2401 35.0013Z" fill="#34A853"/>
<path d="M32.5028 25.3007C32.0001 23.8103 32.0001 22.1965 32.5028 20.7062V17.6152H28.5167C26.8147 21.006 26.8147 25.0009 28.5167 28.3916L32.5028 25.3007Z" fill="#FBBC04"/>
<path d="M39.2401 15.7497C40.9509 15.7232 42.6044 16.367 43.8434 17.5487L47.2695 14.1226C45.1001 12.0855 42.2208 10.9655 39.2401 11.0008C34.7029 11.0008 30.5537 13.5582 28.5166 17.6148L32.5026 20.7058C33.4506 17.8617 36.1095 15.7497 39.2401 15.7497Z" fill="#EA4335"/>
</g>
<rect x="3" y="1.5" width="72" height="43" rx="7.5" stroke="#D0D5DD"/>
</g>
<defs>
<filter id="filter0_d_520_9072" x="0.5" y="0" width="77" height="48" filterUnits="userSpaceOnUse" color-interpolation-filters="sRGB">
<feFlood flood-opacity="0" result="BackgroundImageFix"/>
<feColorMatrix in="SourceAlpha" type="matrix" values="0 0 0 0 0 0 0 0 0 0 0 0 0 0 0 0 0 0 127 0" result="hardAlpha"/>
<feOffset dy="1"/>
<feGaussianBlur stdDeviation="1"/>
<feColorMatrix type="matrix" values="0 0 0 0 0.0627451 0 0 0 0 0.0941176 0 0 0 0 0.156863 0 0 0 0.05 0"/>
<feBlend mode="normal" in2="BackgroundImageFix" result="effect1_dropShadow_520_9072"/>
<feBlend mode="normal" in="SourceGraphic" in2="effect1_dropShadow_520_9072" result="shape"/>
</filter>
<clipPath id="clip0_520_9072">
<rect width="24" height="24" fill="white" transform="translate(27 11)"/>
</clipPath>
</defs>
</svg>
