<svg width="280" height="48" viewBox="0 0 280 48" fill="none" xmlns="http://www.w3.org/2000/svg">
<g filter="url(#filter0_d_520_8920)">
<rect x="2" y="1" width="276" height="44" rx="8" fill="white"/>
<g clip-path="url(#clip0_520_8920)">
<path d="M69.2663 23.2763C69.2663 22.4605 69.2001 21.6404 69.059 20.8379H57.7402V25.4589H64.222C63.953 26.9492 63.0888 28.2676 61.8233 29.1054V32.1037H65.6903C67.9611 30.0137 69.2663 26.9272 69.2663 23.2763Z" fill="#4285F4"/>
<path d="M57.7401 35.0013C60.9766 35.0013 63.7059 33.9387 65.6945 32.1044L61.8276 29.106C60.7517 29.838 59.3627 30.2525 57.7445 30.2525C54.6139 30.2525 51.9595 28.1404 51.007 25.3008H47.0166V28.3917C49.0537 32.4439 53.2029 35.0013 57.7401 35.0013Z" fill="#34A853"/>
<path d="M51.0028 25.3007C50.5001 23.8103 50.5001 22.1965 51.0028 20.7062V17.6152H47.0167C45.3147 21.006 45.3147 25.0009 47.0167 28.3916L51.0028 25.3007Z" fill="#FBBC04"/>
<path d="M57.7401 15.7497C59.4509 15.7232 61.1044 16.367 62.3434 17.5487L65.7695 14.1226C63.6001 12.0855 60.7208 10.9655 57.7401 11.0008C53.2029 11.0008 49.0537 13.5582 47.0166 17.6148L51.0026 20.7058C51.9506 17.8617 54.6095 15.7497 57.7401 15.7497Z" fill="#EA4335"/>
</g>
<path d="M86.268 29.112C85.532 29.112 84.8707 28.984 84.284 28.728C83.708 28.4613 83.2547 28.0987 82.924 27.64C82.5933 27.1707 82.4227 26.632 82.412 26.024H83.964C84.0173 26.5467 84.2307 26.9893 84.604 27.352C84.988 27.704 85.5427 27.88 86.268 27.88C86.9613 27.88 87.5053 27.7093 87.9 27.368C88.3053 27.016 88.508 26.568 88.508 26.024C88.508 25.5973 88.3907 25.2507 88.156 24.984C87.9213 24.7173 87.628 24.5147 87.276 24.376C86.924 24.2373 86.4493 24.088 85.852 23.928C85.116 23.736 84.524 23.544 84.076 23.352C83.6387 23.16 83.26 22.8613 82.94 22.456C82.6307 22.04 82.476 21.4853 82.476 20.792C82.476 20.184 82.6307 19.6453 82.94 19.176C83.2493 18.7067 83.6813 18.344 84.236 18.088C84.8013 17.832 85.4467 17.704 86.172 17.704C87.2173 17.704 88.0707 17.9653 88.732 18.488C89.404 19.0107 89.7827 19.704 89.868 20.568H88.268C88.2147 20.1413 87.9907 19.768 87.596 19.448C87.2013 19.1173 86.6787 18.952 86.028 18.952C85.42 18.952 84.924 19.112 84.54 19.432C84.156 19.7413 83.964 20.1787 83.964 20.744C83.964 21.1493 84.076 21.48 84.3 21.736C84.5347 21.992 84.8173 22.1893 85.148 22.328C85.4893 22.456 85.964 22.6053 86.572 22.776C87.308 22.9787 87.9 23.1813 88.348 23.384C88.796 23.576 89.18 23.88 89.5 24.296C89.82 24.7013 89.98 25.256 89.98 25.96C89.98 26.504 89.836 27.016 89.548 27.496C89.26 27.976 88.8333 28.3653 88.268 28.664C87.7027 28.9627 87.036 29.112 86.268 29.112ZM92.8746 18.808C92.5973 18.808 92.3626 18.712 92.1706 18.52C91.9786 18.328 91.8826 18.0933 91.8826 17.816C91.8826 17.5387 91.9786 17.304 92.1706 17.112C92.3626 16.92 92.5973 16.824 92.8746 16.824C93.1413 16.824 93.3653 16.92 93.5466 17.112C93.7386 17.304 93.8346 17.5387 93.8346 17.816C93.8346 18.0933 93.7386 18.328 93.5466 18.52C93.3653 18.712 93.1413 18.808 92.8746 18.808ZM93.5786 20.232V29H92.1226V20.232H93.5786ZM99.6761 20.088C100.433 20.088 101.095 20.2533 101.66 20.584C102.236 20.9147 102.663 21.3307 102.94 21.832V20.232H104.412V29.192C104.412 29.992 104.241 30.7013 103.9 31.32C103.559 31.9493 103.068 32.44 102.428 32.792C101.799 33.144 101.063 33.32 100.22 33.32C99.0681 33.32 98.1081 33.048 97.3401 32.504C96.5721 31.96 96.1188 31.2187 95.9801 30.28H97.4201C97.5801 30.8133 97.9108 31.24 98.4121 31.56C98.9135 31.8907 99.5161 32.056 100.22 32.056C101.02 32.056 101.671 31.8053 102.172 31.304C102.684 30.8027 102.94 30.0987 102.94 29.192V27.352C102.652 27.864 102.225 28.2907 101.66 28.632C101.095 28.9733 100.433 29.144 99.6761 29.144C98.8975 29.144 98.1881 28.952 97.5481 28.568C96.9188 28.184 96.4228 27.6453 96.0601 26.952C95.6975 26.2587 95.5161 25.4693 95.5161 24.584C95.5161 23.688 95.6975 22.904 96.0601 22.232C96.4228 21.5493 96.9188 21.0213 97.5481 20.648C98.1881 20.2747 98.8975 20.088 99.6761 20.088ZM102.94 24.6C102.94 23.9387 102.807 23.3627 102.54 22.872C102.273 22.3813 101.911 22.008 101.452 21.752C101.004 21.4853 100.508 21.352 99.9641 21.352C99.4201 21.352 98.9241 21.48 98.4761 21.736C98.0281 21.992 97.6708 22.3653 97.4041 22.856C97.1375 23.3467 97.0041 23.9227 97.0041 24.584C97.0041 25.256 97.1375 25.8427 97.4041 26.344C97.6708 26.8347 98.0281 27.2133 98.4761 27.48C98.9241 27.736 99.4201 27.864 99.9641 27.864C100.508 27.864 101.004 27.736 101.452 27.48C101.911 27.2133 102.273 26.8347 102.54 26.344C102.807 25.8427 102.94 25.2613 102.94 24.6ZM111.145 20.072C112.211 20.072 113.075 20.3973 113.737 21.048C114.398 21.688 114.729 22.616 114.729 23.832V29H113.289V24.04C113.289 23.1653 113.07 22.4987 112.633 22.04C112.195 21.5707 111.598 21.336 110.841 21.336C110.073 21.336 109.459 21.576 109.001 22.056C108.553 22.536 108.329 23.2347 108.329 24.152V29H106.873V20.232H108.329V21.48C108.617 21.032 109.006 20.6853 109.497 20.44C109.998 20.1947 110.547 20.072 111.145 20.072ZM122.125 18.808C121.847 18.808 121.613 18.712 121.421 18.52C121.229 18.328 121.133 18.0933 121.133 17.816C121.133 17.5387 121.229 17.304 121.421 17.112C121.613 16.92 121.847 16.824 122.125 16.824C122.391 16.824 122.615 16.92 122.797 17.112C122.989 17.304 123.085 17.5387 123.085 17.816C123.085 18.0933 122.989 18.328 122.797 18.52C122.615 18.712 122.391 18.808 122.125 18.808ZM122.829 20.232V29H121.373V20.232H122.829ZM129.582 20.072C130.649 20.072 131.513 20.3973 132.174 21.048C132.835 21.688 133.166 22.616 133.166 23.832V29H131.726V24.04C131.726 23.1653 131.507 22.4987 131.07 22.04C130.633 21.5707 130.035 21.336 129.278 21.336C128.51 21.336 127.897 21.576 127.438 22.056C126.99 22.536 126.766 23.2347 126.766 24.152V29H125.31V20.232H126.766V21.48C127.054 21.032 127.443 20.6853 127.934 20.44C128.435 20.1947 128.985 20.072 129.582 20.072ZM151.49 20.232L148.754 29H147.25L145.138 22.04L143.026 29H141.522L138.77 20.232H140.258L142.274 27.592L144.45 20.232H145.938L148.066 27.608L150.05 20.232H151.49ZM153.687 18.808C153.41 18.808 153.175 18.712 152.983 18.52C152.791 18.328 152.695 18.0933 152.695 17.816C152.695 17.5387 152.791 17.304 152.983 17.112C153.175 16.92 153.41 16.824 153.687 16.824C153.954 16.824 154.178 16.92 154.359 17.112C154.551 17.304 154.647 17.5387 154.647 17.816C154.647 18.0933 154.551 18.328 154.359 18.52C154.178 18.712 153.954 18.808 153.687 18.808ZM154.391 20.232V29H152.935V20.232H154.391ZM158.649 21.432V26.6C158.649 27.0267 158.739 27.3307 158.921 27.512C159.102 27.6827 159.417 27.768 159.865 27.768H160.937V29H159.625C158.814 29 158.206 28.8133 157.801 28.44C157.395 28.0667 157.193 27.4533 157.193 26.6V21.432H156.057V20.232H157.193V18.024H158.649V20.232H160.937V21.432H158.649ZM167.053 20.072C167.714 20.072 168.311 20.216 168.845 20.504C169.378 20.7813 169.794 21.2027 170.093 21.768C170.402 22.3333 170.557 23.0213 170.557 23.832V29H169.117V24.04C169.117 23.1653 168.898 22.4987 168.461 22.04C168.023 21.5707 167.426 21.336 166.669 21.336C165.901 21.336 165.287 21.576 164.829 22.056C164.381 22.536 164.157 23.2347 164.157 24.152V29H162.701V17.16H164.157V21.48C164.445 21.032 164.839 20.6853 165.341 20.44C165.853 20.1947 166.423 20.072 167.053 20.072ZM185.649 21.08C185.339 20.4293 184.891 19.928 184.305 19.576C183.718 19.2133 183.035 19.032 182.257 19.032C181.478 19.032 180.774 19.2133 180.145 19.576C179.526 19.928 179.035 20.44 178.673 21.112C178.321 21.7733 178.145 22.5413 178.145 23.416C178.145 24.2907 178.321 25.0587 178.673 25.72C179.035 26.3813 179.526 26.8933 180.145 27.256C180.774 27.608 181.478 27.784 182.257 27.784C183.345 27.784 184.241 27.4587 184.945 26.808C185.649 26.1573 186.059 25.2773 186.177 24.168H181.729V22.984H187.729V24.104C187.643 25.0213 187.355 25.864 186.865 26.632C186.374 27.3893 185.729 27.992 184.929 28.44C184.129 28.8773 183.238 29.096 182.257 29.096C181.222 29.096 180.278 28.856 179.425 28.376C178.571 27.8853 177.894 27.208 177.393 26.344C176.902 25.48 176.657 24.504 176.657 23.416C176.657 22.328 176.902 21.352 177.393 20.488C177.894 19.6133 178.571 18.936 179.425 18.456C180.278 17.9653 181.222 17.72 182.257 17.72C183.441 17.72 184.486 18.0133 185.393 18.6C186.31 19.1867 186.977 20.0133 187.393 21.08H185.649ZM193.478 29.144C192.657 29.144 191.91 28.9573 191.238 28.584C190.577 28.2107 190.054 27.6827 189.67 27C189.297 26.3067 189.11 25.5067 189.11 24.6C189.11 23.704 189.302 22.9147 189.686 22.232C190.081 21.5387 190.614 21.0107 191.286 20.648C191.958 20.2747 192.71 20.088 193.542 20.088C194.374 20.088 195.126 20.2747 195.798 20.648C196.47 21.0107 196.998 21.5333 197.382 22.216C197.777 22.8987 197.974 23.6933 197.974 24.6C197.974 25.5067 197.771 26.3067 197.366 27C196.971 27.6827 196.433 28.2107 195.75 28.584C195.067 28.9573 194.31 29.144 193.478 29.144ZM193.478 27.864C194.001 27.864 194.491 27.7413 194.95 27.496C195.409 27.2507 195.777 26.8827 196.054 26.392C196.342 25.9013 196.486 25.304 196.486 24.6C196.486 23.896 196.347 23.2987 196.07 22.808C195.793 22.3173 195.43 21.9547 194.982 21.72C194.534 21.4747 194.049 21.352 193.526 21.352C192.993 21.352 192.502 21.4747 192.054 21.72C191.617 21.9547 191.265 22.3173 190.998 22.808C190.731 23.2987 190.598 23.896 190.598 24.6C190.598 25.3147 190.726 25.9173 190.982 26.408C191.249 26.8987 191.601 27.2667 192.038 27.512C192.475 27.7467 192.955 27.864 193.478 27.864ZM203.712 29.144C202.891 29.144 202.144 28.9573 201.472 28.584C200.811 28.2107 200.288 27.6827 199.904 27C199.531 26.3067 199.344 25.5067 199.344 24.6C199.344 23.704 199.536 22.9147 199.92 22.232C200.315 21.5387 200.848 21.0107 201.52 20.648C202.192 20.2747 202.944 20.088 203.776 20.088C204.608 20.088 205.36 20.2747 206.032 20.648C206.704 21.0107 207.232 21.5333 207.616 22.216C208.011 22.8987 208.208 23.6933 208.208 24.6C208.208 25.5067 208.006 26.3067 207.6 27C207.206 27.6827 206.667 28.2107 205.984 28.584C205.302 28.9573 204.544 29.144 203.712 29.144ZM203.712 27.864C204.235 27.864 204.726 27.7413 205.184 27.496C205.643 27.2507 206.011 26.8827 206.288 26.392C206.576 25.9013 206.72 25.304 206.72 24.6C206.72 23.896 206.582 23.2987 206.304 22.808C206.027 22.3173 205.664 21.9547 205.216 21.72C204.768 21.4747 204.283 21.352 203.76 21.352C203.227 21.352 202.736 21.4747 202.288 21.72C201.851 21.9547 201.499 22.3173 201.232 22.808C200.966 23.2987 200.832 23.896 200.832 24.6C200.832 25.3147 200.96 25.9173 201.216 26.408C201.483 26.8987 201.835 27.2667 202.272 27.512C202.71 27.7467 203.19 27.864 203.712 27.864ZM213.739 20.088C214.496 20.088 215.157 20.2533 215.723 20.584C216.299 20.9147 216.725 21.3307 217.003 21.832V20.232H218.475V29.192C218.475 29.992 218.304 30.7013 217.963 31.32C217.621 31.9493 217.131 32.44 216.491 32.792C215.861 33.144 215.125 33.32 214.283 33.32C213.131 33.32 212.171 33.048 211.403 32.504C210.635 31.96 210.181 31.2187 210.043 30.28H211.483C211.643 30.8133 211.973 31.24 212.475 31.56C212.976 31.8907 213.579 32.056 214.283 32.056C215.083 32.056 215.733 31.8053 216.235 31.304C216.747 30.8027 217.003 30.0987 217.003 29.192V27.352C216.715 27.864 216.288 28.2907 215.723 28.632C215.157 28.9733 214.496 29.144 213.739 29.144C212.96 29.144 212.251 28.952 211.611 28.568C210.981 28.184 210.485 27.6453 210.123 26.952C209.76 26.2587 209.579 25.4693 209.579 24.584C209.579 23.688 209.76 22.904 210.123 22.232C210.485 21.5493 210.981 21.0213 211.611 20.648C212.251 20.2747 212.96 20.088 213.739 20.088ZM217.003 24.6C217.003 23.9387 216.869 23.3627 216.603 22.872C216.336 22.3813 215.973 22.008 215.515 21.752C215.067 21.4853 214.571 21.352 214.027 21.352C213.483 21.352 212.987 21.48 212.539 21.736C212.091 21.992 211.733 22.3653 211.467 22.856C211.2 23.3467 211.067 23.9227 211.067 24.584C211.067 25.256 211.2 25.8427 211.467 26.344C211.733 26.8347 212.091 27.2133 212.539 27.48C212.987 27.736 213.483 27.864 214.027 27.864C214.571 27.864 215.067 27.736 215.515 27.48C215.973 27.2133 216.336 26.8347 216.603 26.344C216.869 25.8427 217.003 25.2613 217.003 24.6ZM222.391 17.16V29H220.935V17.16H222.391ZM232.873 24.28C232.873 24.5573 232.857 24.8507 232.825 25.16H225.817C225.87 26.024 226.163 26.7013 226.697 27.192C227.241 27.672 227.897 27.912 228.665 27.912C229.294 27.912 229.817 27.768 230.233 27.48C230.659 27.1813 230.958 26.7867 231.129 26.296H232.697C232.462 27.1387 231.993 27.8267 231.289 28.36C230.585 28.8827 229.71 29.144 228.665 29.144C227.833 29.144 227.086 28.9573 226.425 28.584C225.774 28.2107 225.262 27.6827 224.889 27C224.515 26.3067 224.329 25.5067 224.329 24.6C224.329 23.6933 224.51 22.8987 224.873 22.216C225.235 21.5333 225.742 21.0107 226.393 20.648C227.054 20.2747 227.811 20.088 228.665 20.088C229.497 20.088 230.233 20.2693 230.873 20.632C231.513 20.9947 232.003 21.496 232.345 22.136C232.697 22.7653 232.873 23.48 232.873 24.28ZM231.369 23.976C231.369 23.4213 231.246 22.9467 231.001 22.552C230.755 22.1467 230.419 21.8427 229.993 21.64C229.577 21.4267 229.113 21.32 228.601 21.32C227.865 21.32 227.235 21.5547 226.713 22.024C226.201 22.4933 225.907 23.144 225.833 23.976H231.369Z" fill="#0D0B0E"/>
<rect x="2.5" y="1.5" width="275" height="43" rx="7.5" stroke="#D0D5DD"/>
</g>
<defs>
<filter id="filter0_d_520_8920" x="0" y="0" width="280" height="48" filterUnits="userSpaceOnUse" color-interpolation-filters="sRGB">
<feFlood flood-opacity="0" result="BackgroundImageFix"/>
<feColorMatrix in="SourceAlpha" type="matrix" values="0 0 0 0 0 0 0 0 0 0 0 0 0 0 0 0 0 0 127 0" result="hardAlpha"/>
<feOffset dy="1"/>
<feGaussianBlur stdDeviation="1"/>
<feColorMatrix type="matrix" values="0 0 0 0 0.0627451 0 0 0 0 0.0941176 0 0 0 0 0.156863 0 0 0 0.05 0"/>
<feBlend mode="normal" in2="BackgroundImageFix" result="effect1_dropShadow_520_8920"/>
<feBlend mode="normal" in="SourceGraphic" in2="effect1_dropShadow_520_8920" result="shape"/>
</filter>
<clipPath id="clip0_520_8920">
<rect width="24" height="24" fill="white" transform="translate(45.5 11)"/>
</clipPath>
</defs>
</svg>
