<svg width="367" height="372" viewBox="0 0 367 372" fill="none" xmlns="http://www.w3.org/2000/svg">
<path d="M193.725 197.414H215.944V197.382" stroke="white" stroke-width="9.22713" stroke-miterlimit="10"/>
<path d="M193.764 197.409V197.372H204.873H249.86" stroke="white" stroke-width="9.22713" stroke-miterlimit="10"/>
<path d="M261.518 215.729V242.487C261.517 254.375 256.794 265.775 248.388 274.181C239.982 282.586 228.581 287.308 216.693 287.308H193.764V215.729" stroke="white" stroke-width="9.22713" stroke-miterlimit="10"/>
<path d="M193.764 178.959V163.633C193.759 156.236 195.212 148.911 198.04 142.077C200.868 135.242 205.015 129.032 210.244 123.801C215.474 118.57 221.683 114.421 228.517 111.592C235.351 108.762 242.676 107.308 250.072 107.311H305.956V152.985C305.956 164.742 301.286 176.018 292.972 184.332C284.658 192.646 273.382 197.317 261.625 197.317H193.764" stroke="white" stroke-width="9.22713" stroke-miterlimit="10"/>
<path d="M182.654 197.343V197.375H193.764H204.873V197.343" stroke="white" stroke-width="9.22713" stroke-miterlimit="10"/>
<path d="M261.622 197.343H249.857V197.375" stroke="white" stroke-width="9.22713" stroke-miterlimit="10"/>
<path d="M204.873 197.412V197.38V197.375V197.343H193.764H182.654V197.375V197.412" stroke="white" stroke-width="9.22713" stroke-miterlimit="10"/>
<path d="M160.275 197.382V197.414H182.494" stroke="white" stroke-width="9.22713" stroke-miterlimit="10"/>
<path d="M115.287 197.372H160.274H171.383V197.409" stroke="white" stroke-width="9.22713" stroke-miterlimit="10"/>
<path d="M171.37 215.729V287.345H148.441C136.553 287.345 125.152 282.623 116.746 274.217C108.34 265.812 103.616 254.412 103.615 242.524V215.729" stroke="white" stroke-width="9.22713" stroke-miterlimit="10"/>
<path d="M171.371 197.34H103.519C91.7617 197.34 80.4858 192.669 72.172 184.355C63.8582 176.041 59.1875 164.765 59.1875 153.008V107.311H115.085C130.013 107.311 144.33 113.241 154.885 123.796C165.441 134.352 171.371 148.668 171.371 163.596V178.959" stroke="white" stroke-width="9.22713" stroke-miterlimit="10"/>
<path d="M160.275 197.343V197.375H171.385H182.494V197.343" stroke="white" stroke-width="9.22713" stroke-miterlimit="10"/>
<path d="M115.288 197.375V197.343H103.523" stroke="white" stroke-width="9.22713" stroke-miterlimit="10"/>
<path d="M182.494 197.412V197.375V197.343H171.385H160.275V197.375V197.38V197.412" stroke="white" stroke-width="9.22713" stroke-miterlimit="10"/>
<path d="M205.17 107.315H205.05C199.182 107.277 193.567 104.919 189.431 100.757C185.295 96.5937 182.974 90.9638 182.974 85.0957C182.972 90.9671 180.646 96.599 176.506 100.762C172.366 104.925 166.746 107.281 160.875 107.315H160.944C166.799 107.371 172.396 109.735 176.517 113.895C180.638 118.055 182.95 123.673 182.951 129.529C182.949 123.673 185.261 118.053 189.382 113.893C193.504 109.732 199.102 107.368 204.958 107.315H205.17Z" fill="white"/>
<path d="M48.8354 303.685C-14.5504 232.803 -12.1836 123.923 55.871 55.868C126.362 -14.6227 240.649 -14.6227 311.139 55.868C380.523 125.256 381.607 237.079 314.369 307.796" stroke="white" stroke-width="4.61356" stroke-miterlimit="10"/>
<path d="M88.9546 299.701C89.1009 299.82 89.3712 300.062 89.7655 300.425C90.1599 300.789 90.5754 301.251 91.0118 301.811C91.4727 302.392 91.8859 303.055 92.2515 303.802C92.6614 304.544 92.9306 305.334 93.0591 306.172C93.212 307.029 93.1776 307.916 92.9561 308.834C92.7345 309.751 92.2349 310.685 91.4572 311.635C90.6795 312.586 89.8387 313.241 88.9347 313.599C88.0551 313.978 87.2142 314.186 86.4122 314.221C85.6101 314.256 84.9221 314.202 84.3483 314.058C83.7988 313.934 83.4432 313.847 83.2815 313.796C83.3878 313.964 83.6116 314.411 83.9528 315.138C84.3383 315.861 84.6164 316.739 84.787 317.774C84.982 318.828 84.9642 319.994 84.7338 321.27C84.5477 322.542 83.9262 323.824 82.8693 325.115C81.972 326.212 81.0237 327.023 80.0245 327.548C79.0451 328.049 78.0581 328.36 77.0632 328.482C76.0884 328.579 75.1323 328.53 74.1951 328.332C73.3022 328.131 72.4713 327.878 71.7025 327.575C70.9536 327.247 70.2933 326.91 69.7217 326.564C69.17 326.194 68.7723 325.91 68.5286 325.71L58.9503 317.873L79.8882 292.283L88.9546 299.701ZM62.8953 319.392L69.1102 324.477C69.4514 324.756 70.0064 325.048 70.7752 325.351C71.5441 325.655 72.4104 325.814 73.3742 325.83C74.3579 325.821 75.386 325.584 76.4584 325.119C77.5751 324.649 78.6519 323.78 79.6888 322.513C80.7656 321.197 81.4137 319.957 81.633 318.794C81.8967 317.626 81.9255 316.572 81.7194 315.63C81.5333 314.664 81.2054 313.847 80.7357 313.177C80.266 312.508 79.8605 312.034 79.5193 311.755L73.3044 306.67L62.8953 319.392ZM74.1419 305.646L79.9181 310.372C80.1131 310.532 80.5064 310.772 81.0979 311.094C81.7095 311.39 82.4229 311.588 83.2382 311.685C84.078 311.803 84.9642 311.714 85.897 311.419C86.8741 311.12 87.8014 310.434 88.6788 309.362C89.6758 308.143 90.1876 306.996 90.2142 305.919C90.2851 304.838 90.1356 303.902 89.7655 303.111C89.3579 302.167 88.7231 301.302 87.8612 300.515L82.1581 295.849L74.1419 305.646Z" fill="white"/>
<path d="M121.466 321.556L109.517 315.174L103.536 326.371L113.355 331.615L112.73 332.785L102.911 327.541L95.1459 342.08L107.095 348.463L106.47 349.632L90.9697 341.354L106.59 312.107L122.091 320.386L121.466 321.556Z" fill="white"/>
<path d="M143.988 327.684L146.26 362.966L142.112 361.756L141.489 351.683L126.22 347.23L120.234 355.375L118.867 354.976L139.886 326.488L143.988 327.684ZM127.094 346.1L141.406 350.274L140.012 328.601L127.094 346.1Z" fill="white"/>
<path d="M162.351 331.986L166.381 332.205L165.433 349.604C165.304 352.545 165.489 354.964 165.988 356.862C166.519 358.761 167.228 360.289 168.116 361.447C169.005 362.574 170.023 363.374 171.17 363.849C172.317 364.323 173.46 364.591 174.598 364.654C175.735 364.716 176.9 364.573 178.092 364.226C179.284 363.879 180.383 363.194 181.39 362.171C182.398 361.116 183.254 359.673 183.956 357.841C184.689 356.011 185.152 353.627 185.344 350.689L186.292 333.291L187.572 333.36L186.624 350.759C186.574 351.676 186.454 352.715 186.264 353.878C186.107 355.01 185.854 356.154 185.506 357.308C185.158 358.461 184.685 359.577 184.088 360.654C183.522 361.732 182.805 362.676 181.936 363.484C181.068 364.293 180.019 364.933 178.789 365.405C177.592 365.847 176.171 366.023 174.528 365.934C173.106 365.856 171.582 365.599 169.958 365.161C168.367 364.694 166.906 363.87 165.575 362.688C164.245 361.506 163.162 359.862 162.326 357.756C161.523 355.62 161.214 352.845 161.4 349.432L162.351 331.986Z" fill="white"/>
<path d="M219.033 328.871L219.245 330.187L209.28 331.797L214.385 363.384L210.39 364.029L205.285 332.443L195.32 334.053L195.108 332.737L219.033 328.871Z" fill="white"/>
<path d="M227.601 326.319L231.441 325.077L241.672 356.698L237.833 357.94L227.601 326.319Z" fill="white"/>
<path d="M259.958 312.299L256.997 332.421L274.964 341.954L270.6 344.162L253.57 335.113L260.687 349.178L257.086 351L242.081 321.345L245.682 319.523L253.184 334.35L255.303 333.279L258.264 313.157L259.958 312.299Z" fill="white"/>
<path d="M279.065 298.359L309.346 316.608L305.987 319.326L297.357 314.095L284.993 324.1L288.272 333.662L287.164 334.558L275.744 301.047L279.065 298.359ZM284.562 322.738L296.152 313.36L277.552 302.149L284.562 322.738Z" fill="white"/>
</svg>
